<svg xmlns="http://www.w3.org/2000/svg" aria-hidden="true" style="position:absolute;width:0;height:0;overflow:hidden">
  <defs>
    <symbol id="icon-ai" viewBox="0 0 32 32">
      <path fill="#fff" d="M24.889 5.333H7.111a1.776 1.776 0 0 0-1.778 1.778v17.778a1.776 1.776 0 0 0 1.778 1.778h17.778a1.776 1.776 0 0 0 1.778-1.778V7.111a1.776 1.776 0 0 0-1.778-1.778zm0 1.778v11.556H21.7a1.77 1.77 0 0 0-1.256.522l-2.146 2.146H13.7l-2.146-2.146a1.77 1.77 0 0 0-1.257-.521H7.109V7.112h17.778zm0 17.778H7.111v-4.445h3.188l2.146 2.146a1.77 1.77 0 0 0 1.257.521H18.3a1.767 1.767 0 0 0 1.257-.521l2.146-2.146h3.188v4.444z" style="fill:var(--color1, #fff)"/>
    </symbol>
    <symbol id="icon-check-fill" viewBox="0 0 32 32">
      <path d="M16 28A12.003 12.003 0 0 1 4 16a12.003 12.003 0 0 1 20.485-8.486A11.999 11.999 0 0 1 16 27.998zm-.309-7.147 6.667-8-2.048-1.707-5.733 6.879-2.967-2.968-1.885 1.885 5.032 5.032.935-1.121z"/>
    </symbol>
    <symbol id="icon-check-fill-white" viewBox="0 0 32 32">
      <path fill="#fff" d="M16 28A12.003 12.003 0 0 1 4 16a12.003 12.003 0 0 1 20.485-8.486A11.999 11.999 0 0 1 16 27.998zm-.309-7.147 6.667-8-2.048-1.707-5.733 6.879-2.967-2.968-1.885 1.885 5.032 5.032.935-1.121z" style="fill:var(--color1, #fff)"/>
    </symbol>
    <symbol id="icon-circle" viewBox="0 0 32 32">
      <path fill="#fff" d="M16 5.333A10.666 10.666 0 1 0 26.667 16 10.675 10.675 0 0 0 16.001 5.334zm9.007 10.099c-2.907 2.051-5.084 1.506-7.371.45 2.057-1.455 3.986-3.304 4.054-6.883a9.023 9.023 0 0 1 3.317 6.433zm-4.996-7.515c.321 3.541-1.242 5.154-3.293 6.607-.231-2.511-.866-5.108-3.935-6.956a9.01 9.01 0 0 1 7.231.349h-.002zm-9.004.568c3.226 1.492 3.843 3.649 4.073 6.154-2.29-1.055-4.856-1.804-7.993-.07a9.034 9.034 0 0 1 3.92-6.084zm-4.014 8.083c2.907-2.051 5.084-1.506 7.371-.45-2.056 1.455-3.986 3.304-4.054 6.883a9.023 9.023 0 0 1-3.317-6.433zm4.996 7.515c-.321-3.541 1.242-5.154 3.293-6.607.231 2.511.866 5.108 3.935 6.956a9.01 9.01 0 0 1-7.231-.349h.002zm9.004-.568c-3.226-1.492-3.843-3.649-4.073-6.154 1.305.601 2.698 1.103 4.236 1.103 1.162 0 2.406-.287 3.757-1.034a9.032 9.032 0 0 1-3.92 6.085z" style="fill:var(--color1, #fff)"/>
    </symbol>
    <symbol id="icon-close" viewBox="0 0 32 32">
      <path fill="#fff" d="m8.533 25.333-1.867-1.867 7.467-7.467-7.467-7.467 1.867-1.867L16 14.132l7.467-7.467 1.867 1.867-7.467 7.467 7.467 7.467-1.867 1.867L16 17.866l-7.467 7.467z" style="fill:var(--color1, #fff)"/>
    </symbol>
    <symbol id="icon-close-solid" viewBox="0 0 32 32">
      <path fill-opacity="0.5" d="M7.663 24.631a12.003 12.003 0 0 1-.149-17.116 12.005 12.005 0 0 1 17.116.149A12 12 0 0 1 7.662 24.632zm10.164-8.484 3.396-3.396-1.692-1.692-3.384 3.396-3.396-3.396-1.692 1.692 3.396 3.396-3.396 3.396 1.692 1.692 3.396-3.396 3.396 3.396 1.692-1.692-3.396-3.396h-.012z"/>
    </symbol>
    <symbol id="icon-close-solid-white" viewBox="0 0 32 32">
      <path fill="#fff" d="M7.663 24.631a12.003 12.003 0 0 1-.149-17.116 12.005 12.005 0 0 1 17.116.149A12 12 0 0 1 7.662 24.632zm10.164-8.484 3.396-3.396-1.692-1.692-3.384 3.396-3.396-3.396-1.692 1.692 3.396 3.396-3.396 3.396 1.692 1.692 3.396-3.396 3.396 3.396 1.692-1.692-3.396-3.396h-.012z" opacity=".7" style="fill:var(--color1, #fff)"/>
    </symbol>
    <symbol id="icon-coin" viewBox="0 0 32 32">
      <path fill="#fff" d="M24.772 9.278c-2.186-1.085-5.088-1.659-8.391-1.659s-6.205.574-8.391 1.659-3.418 2.613-3.418 4.207v5.029c0 1.594 1.246 3.127 3.418 4.207s5.088 1.659 8.391 1.659 6.205-.574 8.391-1.659 3.418-2.613 3.418-4.207v-5.029c0-1.594-1.246-3.127-3.418-4.207zm-8.391.017c6.605 0 10.122 2.434 10.122 4.19s-3.518 4.19-10.122 4.19c-6.605 0-10.122-2.434-10.122-4.19s3.518-4.19 10.122-4.19zm-.844 10.043v3.352c-2.003-.065-3.691-.358-5.061-.785v-3.281c1.652.437 3.352.677 5.061.713zm1.687 0a21.62 21.62 0 0 0 5.061-.713v3.28c-1.371.426-3.058.72-5.061.785v-3.351zm-10.966-.824v-1.935a8.75 8.75 0 0 0 1.731 1.114c.256.127.527.246.799.359v3.186c-1.669-.821-2.531-1.855-2.531-2.724zm17.715 2.724v-3.186c.275-.113.543-.233.799-.359a8.721 8.721 0 0 0 1.731-1.114v1.935c0 .869-.861 1.902-2.531 2.724z" style="fill:var(--color1, #fff)"/>
    </symbol>
    <symbol id="icon-coins" viewBox="0 0 33 32">
      <path fill="#351bf8" d="M22.07 12.007v-.579c0-2.606-3.843-4.571-8.94-4.571s-8.94 1.966-8.94 4.571v4.156c0 2.17 2.667 3.895 6.502 4.411v.576c0 2.606 3.843 4.571 8.94 4.571s8.94-1.966 8.94-4.571v-4.156c0-2.151-2.582-3.877-6.502-4.408zm4.876 4.409c0 1.373-3.128 2.909-7.314 2.909-.379 0-.755-.014-1.126-.038 2.191-.817 3.564-2.143 3.564-3.702v-1.897c3.034.462 4.876 1.717 4.876 2.728zm-16.254 1.896V15.84c.808.108 1.623.161 2.438.16.815.001 1.63-.052 2.438-.16v2.472c-.807.122-1.622.183-2.438.182-.816.001-1.631-.06-2.438-.182zm9.752-4.189v1.462c0 .872-1.261 1.808-3.251 2.376v-2.428c1.311-.325 2.422-.809 3.251-1.41zM13.13 8.519c4.186 0 7.314 1.536 7.314 2.909s-3.128 2.909-7.314 2.909-7.314-1.536-7.314-2.909 3.128-2.909 7.314-2.909zm-7.314 7.065v-1.462c.829.601 1.939 1.085 3.251 1.41v2.428c-1.99-.568-3.251-1.504-3.251-2.376zm6.502 4.987v-.433c.267.01.537.018.813.018.394 0 .779-.014 1.157-.036.42.154.847.284 1.281.391v2.437c-1.99-.568-3.251-1.504-3.251-2.376zm4.876 2.728v-2.478a18.238 18.238 0 0 0 4.876.006v2.472a16.465 16.465 0 0 1-4.876 0zm6.501-.351V20.52c1.311-.325 2.422-.809 3.251-1.41v1.462c0 .872-1.261 1.808-3.251 2.376z" style="fill:var(--color2, #351bf8)"/>
    </symbol>
    <symbol id="icon-head" viewBox="0 0 32 32">
      <path fill="#fff" d="M22.806 20.636a9.432 9.432 0 0 0 3.359-7.417c-.107-4.875-4.011-8.895-8.878-9.151a9.386 9.386 0 0 0-9.893 9.158L5 17.831l-.028.058c-.172.4-.184.851-.034 1.259s.45.745.839.94l.027.012 2.443 1.119v3.313a1.707 1.707 0 0 0 1.707 1.707h5.119a.853.853 0 0 0 0-1.706H9.954v-3.86a.855.855 0 0 0-.498-.776l-2.915-1.336 2.46-4.729a.842.842 0 0 0 .099-.39 7.68 7.68 0 0 1 5.973-7.488v1.663a2.561 2.561 0 0 0-.797 4.37 2.562 2.562 0 0 0 3.3 0 2.557 2.557 0 0 0 .558-3.252 2.557 2.557 0 0 0-1.355-1.118V5.763c.139 0 .277 0 .416.011a7.701 7.701 0 0 1 6.819 5.108h-2.116a.859.859 0 0 0-.656.308l-2.721 3.266a2.569 2.569 0 0 0-3.115 1.116 2.567 2.567 0 0 0 2.233 3.854 2.563 2.563 0 0 0 2.518-2.146 2.564 2.564 0 0 0-.326-1.731l2.467-2.96h2.111c.026.222.041.446.047.672a7.7 7.7 0 0 1-3.07 6.325.85.85 0 0 0-.334.788l.853 6.826a.851.851 0 0 0 .846.747.861.861 0 0 0 .675-.329.865.865 0 0 0 .173-.63l-.793-6.349zm-6.879-9.755a.85.85 0 0 1-.788-.527.849.849 0 0 1 .185-.93.858.858 0 0 1 .93-.185.858.858 0 0 1 .527.788.853.853 0 0 1-.853.853zm1.706 6.825a.85.85 0 0 1-.788-.527.849.849 0 0 1 .185-.93.85.85 0 0 1 .93-.184.858.858 0 0 1 .527.788.853.853 0 0 1-.853.853z" style="fill:var(--color1, #fff)"/>
    </symbol>
    <symbol id="icon-location" viewBox="0 0 32 32">
      <path fill="#fff" d="M25 13a9 9 0 1 0-18 0c0 3.692 2.954 8.504 9 14.268 6.046-5.764 9-10.576 9-14.268zm-9 17C8.666 23.334 5 17.666 5 13a11 11 0 0 1 22 0c0 4.666-3.666 10.334-11 17z" style="fill:var(--color1, #fff)"/>
      <path fill="#fff" d="M16 16a3.004 3.004 0 0 0 3-3 3.004 3.004 0 0 0-3-3 2.998 2.998 0 0 0-3 3 2.998 2.998 0 0 0 3 3zm0 2a4.997 4.997 0 0 1-5-5 4.997 4.997 0 0 1 5-5 4.997 4.997 0 0 1 5 5 4.997 4.997 0 0 1-5 5z" style="fill:var(--color1, #fff)"/>
    </symbol>
    <symbol id="icon-mail" viewBox="0 0 32 32">
      <path fill="#fff" d="M29.333 8c0-1.467-1.2-2.667-2.667-2.667H5.333A2.675 2.675 0 0 0 2.666 8v16c0 1.467 1.2 2.667 2.667 2.667h21.333c1.467 0 2.667-1.2 2.667-2.667V8zm-2.666 0L16 14.653 5.333 8h21.333zm0 16H5.334V10.667l10.667 6.667 10.667-6.667V24z" style="fill:var(--color1, #fff)"/>
    </symbol>
    <symbol id="icon-menu" viewBox="0 0 32 32">
      <path fill="#fff" d="M4 24v-2.667h24V24H4zm0-6.667v-2.667h24v2.667H4zm0-6.666V8h24v2.667H4z" style="fill:var(--color1, #fff)"/>
    </symbol>
    <symbol id="icon-minus" viewBox="0 0 32 32">
      <path d="M25.333 14.667H6.666a1.334 1.334 0 0 0 0 2.668h18.667a1.334 1.334 0 0 0 0-2.668z"/>
    </symbol>
    <symbol id="icon-pen" viewBox="0 0 32 32">
      <path fill="#fff" d="M26.481 15.036c-.007-.014-.013-.029-.021-.042l-3.349-5.957V4.826a1.776 1.776 0 0 0-1.778-1.778H10.667a1.776 1.776 0 0 0-1.778 1.778v4.213L5.54 14.994c-.008.013-.014.028-.022.042a1.768 1.768 0 0 0 .162 1.841l.012.016 9.604 12.476a.887.887 0 0 0 1.408 0l9.615-12.491a1.764 1.764 0 0 0 .161-1.841zM21.333 4.825v3.556H10.667V4.825h10.666zM16 17.27a1.332 1.332 0 0 1-1.308-1.593 1.332 1.332 0 0 1 2.416-.481 1.337 1.337 0 0 1-.165 1.684c-.25.25-.589.391-.943.391zm.889 8.945v-7.297a3.114 3.114 0 0 0 2.19-3.431 3.11 3.11 0 0 0-5.114-1.904 3.115 3.115 0 0 0-.588 4.027 3.111 3.111 0 0 0 1.734 1.308v7.296l-8-10.388 3.188-5.667h11.403l3.187 5.667-8 10.389z" style="fill:var(--color1, #fff)"/>
    </symbol>
    <symbol id="icon-phone" viewBox="0 0 32 32">
      <path fill="#fff" d="M8.72 6.667c.08 1.187.28 2.347.6 3.453l-1.6 1.6a19.75 19.75 0 0 1-1.013-5.053H8.72zm13.147 16.026c1.133.32 2.293.52 3.467.6v1.987a20.593 20.593 0 0 1-5.067-1l1.6-1.587zM10 4H5.333C4.6 4 4 4.6 4 5.333 4 17.853 14.147 28 26.667 28 27.4 28 28 27.4 28 26.667v-4.653c0-.733-.6-1.333-1.333-1.333-1.653 0-3.267-.267-4.76-.76a1.08 1.08 0 0 0-.413-.067c-.347 0-.68.133-.947.387l-2.933 2.933a20.201 20.201 0 0 1-8.787-8.787l2.933-2.933c.373-.373.48-.893.333-1.36a15.21 15.21 0 0 1-.76-4.76c0-.733-.6-1.333-1.333-1.333z" style="fill:var(--color1, #fff)"/>
    </symbol>
    <symbol id="icon-piggy" viewBox="0 0 33 32">
      <path fill="#fff" d="M23.066 15.19a1.193 1.193 0 0 1-.728 1.099 1.172 1.172 0 0 1-1.286-.258 1.2 1.2 0 0 1 .178-1.832 1.17 1.17 0 0 1 1.489.148c.221.224.346.526.346.842zm-3.932-5.158h-3.932c-.209 0-.409.084-.556.232a.798.798 0 0 0 0 1.122.782.782 0 0 0 .556.232h3.932c.209 0 .409-.084.556-.232a.798.798 0 0 0 0-1.122.782.782 0 0 0-.556-.232zm9.437 4.762v3.175c0 .631-.249 1.237-.691 1.684s-1.043.697-1.668.697h-.232l-1.594 4.502c-.109.308-.31.575-.575.764s-.582.29-.906.29h-1.25c-.325 0-.641-.101-.906-.29s-.466-.455-.575-.764l-.189-.534h-5.633l-.189.534c-.109.308-.31.575-.575.764s-.582.29-.906.29h-1.251c-.324 0-.641-.101-.906-.29s-.466-.455-.575-.764l-1.236-3.488a8.736 8.736 0 0 1-2.108-4.8 1.583 1.583 0 0 0-.842 1.405c0 .21-.083.412-.23.561a.782.782 0 0 1-1.112 0 .8.8 0 0 1-.23-.561c.001-.708.237-1.395.669-1.952s1.037-.953 1.718-1.123c.176-2.187 1.16-4.228 2.758-5.716s3.691-2.317 5.866-2.319h10.224c.209 0 .409.084.556.232a.798.798 0 0 1 0 1.122.782.782 0 0 1-.556.232h-2.103a8.702 8.702 0 0 1 3.089 3.969c.591.051 1.141.324 1.541.765s.621 1.018.619 1.616zm-1.573 0c0-.21-.083-.412-.23-.561s-.348-.232-.556-.232h-.36a.782.782 0 0 1-.751-.556c-.451-1.451-1.349-2.719-2.564-3.618s-2.683-1.384-4.19-1.382h-3.146c-1.374 0-2.718.403-3.868 1.161s-2.058 1.836-2.611 3.105c-.553 1.269-.729 2.673-.505 4.04s.837 2.64 1.765 3.662a.784.784 0 0 1 .161.269l1.287 3.636h1.251l.376-1.061c.055-.154.155-.287.287-.382s.291-.145.453-.145h6.742a.785.785 0 0 1 .74.527l.376 1.061h1.25l1.78-5.029c.055-.154.155-.287.287-.382s.291-.145.453-.145h.786c.209 0 .409-.084.556-.232s.23-.351.23-.561v-3.175z" style="fill:var(--color1, #fff)"/>
    </symbol>
    <symbol id="icon-plane" viewBox="0 0 32 32">
      <path fill="#fff" d="m22.541 14.103 3.126-2.943a3.414 3.414 0 1 0-4.828-4.828c0 .006-.012.012-.018.018l-2.925 3.108-8.853-3.221a.85.85 0 0 0-.894.199l-2.56 2.56a.86.86 0 0 0-.246.687.856.856 0 0 0 .376.626l6.815 4.542-1.581 1.575H8.746a.853.853 0 0 0-.603.25l-2.56 2.56a.855.855 0 0 0 .283 1.395l3.927 1.571 1.574 3.937a.852.852 0 0 0 1.406.264l2.546-2.547a.846.846 0 0 0 .252-.602v-2.207l1.574-1.574 4.543 6.814a.856.856 0 0 0 1.313.13l2.56-2.56a.86.86 0 0 0 .199-.895l-3.22-8.859zm-.008 10.37L17.99 17.66a.848.848 0 0 0-.626-.379h-.084a.855.855 0 0 0-.604.25l-2.56 2.56a.857.857 0 0 0-.251.603v2.207l-1.394 1.394-1.227-3.067a.849.849 0 0 0-.472-.472l-3.065-1.227L9.1 18.135h2.206a.855.855 0 0 0 .604-.25l2.56-2.56a.847.847 0 0 0 .246-.688.856.856 0 0 0-.376-.626L7.527 9.467l1.44-1.439 8.876 3.227a.855.855 0 0 0 .913-.213l3.3-3.51a1.71 1.71 0 0 1 2.396.018c.317.317.496.746.5 1.194s-.17.88-.483 1.201l-3.506 3.299a.851.851 0 0 0-.213.913l3.227 8.876-1.443 1.44z" style="fill:var(--color1, #fff)"/>
    </symbol>
    <symbol id="icon-play-circle-broken" viewBox="0 0 32 32">
      <path fill="none" stroke="#565656" stroke-linecap="round" stroke-width="3.2" d="M19.452 3.119a13.272 13.272 0 0 1 5.976 3.453c5.207 5.207 5.207 13.649 0 18.856s-13.649 5.207-18.856 0c-5.207-5.207-5.207-13.649 0-18.856a13.27 13.27 0 0 1 5.976-3.453" style="stroke:var(--color3, #565656)"/>
    </symbol>
    <symbol id="icon-plus" viewBox="0 0 32 32">
      <path d="M24 17.331h-6.667v6.667a1.334 1.334 0 0 1-2.668 0v-6.667H7.998a1.333 1.333 0 1 1 0-2.667h6.667V7.997a1.334 1.334 0 0 1 2.668 0v6.667H24a1.334 1.334 0 0 1 0 2.667z"/>
    </symbol>
    <symbol id="icon-pyramid" viewBox="0 0 32 32">
      <path fill="#fff" d="M20.559 11.064a3.252 3.252 0 0 0 3.003-2.004 3.247 3.247 0 0 0-4.247-4.241c-.594.246-1.101.662-1.459 1.196s-.548 1.162-.548 1.804a3.252 3.252 0 0 0 3.25 3.247zm0-4.638a1.385 1.385 0 0 1 1.366 1.662 1.387 1.387 0 0 1-1.094 1.093 1.396 1.396 0 0 1-1.43-.591 1.39 1.39 0 0 1 1.158-2.164zm10.549 18.078-6.333-10.676a1.846 1.846 0 0 0-1.598-.909 1.846 1.846 0 0 0-1.597.909l-3.037 5.12-5.205-8.823a1.864 1.864 0 0 0-1.601-.915 1.854 1.854 0 0 0-1.601.915L1.651 24.507a.926.926 0 0 0 .8 1.398h27.858a.924.924 0 0 0 .807-.469.93.93 0 0 0-.008-.932zm-19.37-13.44 2.736 4.638H9.002l2.736-4.638zM4.077 24.05l3.83-6.493h7.661l3.83 6.493H4.076zm17.477 0-1.934-3.279 3.556-5.997 5.508 9.275h-7.13z" style="fill:var(--color1, #fff)"/>
    </symbol>
  </defs>
</svg>
